<svg width="70" height="70" viewBox="0 0 70 70" fill="none" xmlns="http://www.w3.org/2000/svg">
<path d="M36.5583 69.4016L59.8904 48.4028C60.3851 47.9548 60.665 47.3295 60.665 46.6669V32.6676C60.665 31.7483 60.1237 30.913 59.2838 30.5351C58.4392 30.1618 57.4545 30.3157 56.7733 30.9317L34.9998 50.526L13.2309 30.9317C12.545 30.3157 11.5604 30.1571 10.7204 30.5351C9.87579 30.913 9.33449 31.7483 9.33449 32.6676V46.6669C9.33449 47.3295 9.61914 47.9548 10.1044 48.4028L33.4365 69.4016C34.3231 70.1996 35.6764 70.1996 36.5583 69.4016Z" fill="black"/>
<path d="M36.5583 39.0698L59.8904 18.071C60.3851 17.623 60.665 16.9977 60.665 16.3351V2.33583C60.665 1.41655 60.1237 0.581259 59.2838 0.20328C58.4392 -0.170033 57.4545 -0.0160419 56.7733 0.599925L34.9998 20.1942L13.2309 0.599925C12.545 -0.0160419 11.5604 -0.1747 10.7204 0.20328C9.87579 0.581259 9.33449 1.41655 9.33449 2.33583V16.3351C9.33449 16.9977 9.61914 17.623 10.1044 18.071L33.4365 39.0698C34.3231 39.8678 35.6764 39.8678 36.5583 39.0698Z" fill="black"/>
</svg>
