<svg width="30" height="30" viewBox="0 0 30 30" fill="none" xmlns="http://www.w3.org/2000/svg">
<path d="M21.0628 -0.000244141H8.93716C4.00919 -0.000244141 0 4.00895 0 8.93692V21.0626C0 25.9906 4.00919 29.9998 8.93716 29.9998H21.0628C25.9908 29.9998 30 25.9906 30 21.0626V8.93692C29.9999 4.00895 25.9908 -0.000244141 21.0628 -0.000244141ZM26.982 21.0626C26.982 24.3316 24.3319 26.9818 21.0628 26.9818H8.93716C5.66813 26.9818 3.018 24.3316 3.018 21.0626V8.93692C3.018 5.66783 5.66813 3.01775 8.93716 3.01775H21.0628C24.3319 3.01775 26.982 5.66783 26.982 8.93692V21.0626Z" fill="white"/>
<path d="M15.0003 7.24072C10.7219 7.24072 7.24121 10.7214 7.24121 14.9997C7.24121 19.278 10.7219 22.7588 15.0003 22.7588C19.2786 22.7588 22.7593 19.2781 22.7593 14.9997C22.7593 10.7214 19.2786 7.24072 15.0003 7.24072ZM15.0003 19.7409C12.3818 19.7409 10.2592 17.6182 10.2592 14.9998C10.2592 12.3813 12.3819 10.2587 15.0003 10.2587C17.6187 10.2587 19.7413 12.3813 19.7413 14.9998C19.7413 17.6182 17.6187 19.7409 15.0003 19.7409Z" fill="white"/>
<path d="M22.7743 9.15816C23.8011 9.15816 24.6335 8.32576 24.6335 7.29893C24.6335 6.2721 23.8011 5.4397 22.7743 5.4397C21.7474 5.4397 20.915 6.2721 20.915 7.29893C20.915 8.32576 21.7474 9.15816 22.7743 9.15816Z" fill="white"/>
</svg>
