<svg width="30" height="30" viewBox="0 0 30 30" fill="none" xmlns="http://www.w3.org/2000/svg">
<path d="M27.0002 26.9998V18.2098C27.0002 13.8898 26.0702 10.5898 21.0302 10.5898C18.6002 10.5898 16.9802 11.9098 16.3202 13.1698H16.2602V10.9798H11.4902V26.9998H16.4702V19.0498C16.4702 16.9498 16.8602 14.9398 19.4402 14.9398C21.9902 14.9398 22.0202 17.3098 22.0202 19.1698V26.9698H27.0002V26.9998Z" fill="white"/>
<path d="M3.38965 10.9797H8.36965V26.9997H3.38965V10.9797Z" fill="white"/>
<path d="M5.88 2.99976C4.29 2.99976 3 4.28976 3 5.87976C3 7.46976 4.29 8.78976 5.88 8.78976C7.47 8.78976 8.76 7.46976 8.76 5.87976C8.76 4.28976 7.47 2.99976 5.88 2.99976Z" fill="white"/>
</svg>
