<svg width="50" height="50" viewBox="0 0 50 50" fill="none" xmlns="http://www.w3.org/2000/svg">
<g clip-path="url(#clip0_3241_460)">
<path d="M39.5165 30.9732C38.4929 29.9074 37.2582 29.3375 35.9496 29.3375C34.6516 29.3375 33.4064 29.8968 32.3406 30.9627L29.0059 34.2868C28.7315 34.1391 28.4571 34.0019 28.1933 33.8647C27.8134 33.6747 27.4546 33.4953 27.1486 33.3054C24.0249 31.3214 21.1862 28.736 18.4636 25.3907C17.1445 23.7234 16.258 22.3199 15.6143 20.8952C16.4796 20.1038 17.2817 19.2807 18.0626 18.4892C18.3581 18.1937 18.6535 17.8877 18.949 17.5922C21.1651 15.3761 21.1651 12.5057 18.949 10.2896L16.0681 7.40871C15.741 7.08157 15.4033 6.74388 15.0867 6.40619C14.4535 5.75191 13.7887 5.07653 13.1027 4.44336C12.0791 3.43028 10.855 2.89209 9.56754 2.89209C8.28009 2.89209 7.03486 3.43028 5.97957 4.44336C5.96902 4.45391 5.96902 4.45391 5.95847 4.46446L2.3705 8.08409C1.01974 9.43485 0.249378 11.0811 0.0805328 12.9912C-0.172735 16.0726 0.734809 18.943 1.4313 20.8214C3.14086 25.433 5.69464 29.7069 9.50422 34.2868C14.1264 39.8059 19.6877 44.1643 26.0405 47.2351C28.4677 48.3854 31.7074 49.7467 35.327 49.9789C35.5486 49.9894 35.7808 50 35.9919 50C38.4296 50 40.4768 49.1241 42.0808 47.3829C42.0914 47.3618 42.1125 47.3512 42.1231 47.3301C42.6718 46.6653 43.305 46.0638 43.9698 45.42C44.4236 44.9874 44.8879 44.5336 45.3417 44.0587C46.3864 42.9718 46.9352 41.7054 46.9352 40.4074C46.9352 39.0989 46.3759 37.8431 45.31 36.7878L39.5165 30.9732ZM43.2944 42.0853C43.2839 42.0853 43.2839 42.0959 43.2944 42.0853C42.8829 42.5286 42.4607 42.9296 42.007 43.3728C41.321 44.0271 40.6246 44.713 39.9703 45.4834C38.9044 46.6231 37.6487 47.1613 36.0024 47.1613C35.8441 47.1613 35.6753 47.1613 35.517 47.1507C32.3828 46.9502 29.4702 45.7261 27.2858 44.6813C21.3129 41.7899 16.0681 37.6848 11.7098 32.4823C8.11125 28.145 5.7052 24.135 4.11172 19.8294C3.1303 17.2017 2.77151 15.1545 2.9298 13.2233C3.03533 11.9886 3.51021 10.965 4.38609 10.0891L7.98461 6.49061C8.5017 6.00518 9.05045 5.74136 9.58864 5.74136C10.2535 5.74136 10.7917 6.14237 11.1294 6.48006C11.1399 6.49061 11.1505 6.50116 11.161 6.51171C11.8047 7.11323 12.4168 7.73585 13.0605 8.40067C13.3877 8.73836 13.7254 9.07606 14.063 9.4243L16.944 12.3052C18.0626 13.4238 18.0626 14.458 16.944 15.5766C16.6379 15.8826 16.3425 16.1887 16.0364 16.4841C15.15 17.3917 14.3058 18.2359 13.3877 19.059C13.3666 19.0801 13.3455 19.0907 13.3349 19.1118C12.4274 20.0194 12.5962 20.9058 12.7862 21.5073C12.7967 21.539 12.8073 21.5706 12.8178 21.6023C13.5671 23.4174 14.6223 25.1269 16.2264 27.1636L16.2369 27.1742C19.1495 30.7621 22.2204 33.5586 25.6079 35.7009C26.0405 35.9753 26.4837 36.1969 26.9059 36.4079C27.2858 36.5979 27.6446 36.7773 27.9506 36.9672C27.9928 36.9883 28.035 37.02 28.0772 37.0411C28.436 37.2205 28.7737 37.3049 29.122 37.3049C29.9978 37.3049 30.5466 36.7562 30.726 36.5768L34.3351 32.9677C34.6939 32.6089 35.2637 32.1762 35.9285 32.1762C36.5828 32.1762 37.121 32.5878 37.4481 32.9466C37.4587 32.9571 37.4587 32.9571 37.4693 32.9677L43.2839 38.7823C44.3708 39.8587 44.3708 40.9667 43.2944 42.0853Z" fill="white"/>
<path d="M27.0223 11.8938C29.7871 12.3581 32.2987 13.6666 34.3037 15.6717C36.3088 17.6767 37.6068 20.1883 38.0816 22.9531C38.1977 23.6496 38.7992 24.1351 39.4852 24.1351C39.5696 24.1351 39.6435 24.1245 39.7279 24.1139C40.5088 23.9873 41.0259 23.2486 40.8993 22.4677C40.3294 19.1225 38.7465 16.0727 36.3299 13.6561C33.9133 11.2395 30.8635 9.65655 27.5182 9.0867C26.7373 8.96007 26.0092 9.47716 25.872 10.2475C25.7348 11.0179 26.2414 11.7671 27.0223 11.8938Z" fill="white"/>
<path d="M49.943 22.0563C49.0038 16.5477 46.4078 11.5351 42.4188 7.54614C38.4298 3.55717 33.4172 0.961166 27.9087 0.0219635C27.1383 -0.115223 26.4102 0.412419 26.273 1.18278C26.1463 1.96369 26.6634 2.69183 27.4443 2.82902C32.362 3.66269 36.8469 5.99487 40.4138 9.55118C43.9806 13.118 46.3023 17.603 47.1359 22.5206C47.252 23.2171 47.8535 23.7025 48.5395 23.7025C48.6239 23.7025 48.6978 23.692 48.7822 23.6814C49.5525 23.5654 50.0802 22.8267 49.943 22.0563Z" fill="white"/>
</g>
<defs>
<clipPath id="clip0_3241_460">
<rect width="50" height="50" fill="white"/>
</clipPath>
</defs>
</svg>
