<svg width="512" height="512" viewBox="0 0 512 512" fill="none" xmlns="http://www.w3.org/2000/svg">
<g clip-path="url(#clip0_3414_37)">
<path d="M492.381 104.546C472.735 77.513 438.331 53.113 395.505 35.843C352.91 18.667 303.454 9.169 256.245 9.101C209.032 8.983 159.515 18.383 116.859 35.426C73.9588 52.567 39.4718 76.861 19.7548 103.83C0.816849 129.733 -4.64115 157.652 3.96985 184.569C9.55585 202.031 25.8508 213.78 44.5278 213.807L108.479 213.867C108.5 213.867 108.521 213.867 108.543 213.867C121.295 213.866 133.276 208.284 141.418 198.545C149.474 188.91 152.811 176.318 150.574 163.996C150.509 163.635 150.429 163.275 150.338 162.918L146.973 149.836C165.607 140.945 207.827 123.767 256.048 124.04C304.234 124.287 346.425 141.455 365.082 150.35L361.663 163.358C361.566 163.726 361.484 164.097 361.414 164.47C359.143 176.785 362.443 189.386 370.471 199.044C378.599 208.824 390.589 214.442 403.374 214.461L467.325 214.521C467.346 214.521 467.368 214.521 467.389 214.521C486.03 214.52 502.33 202.825 507.959 185.4C516.65 158.489 511.264 130.53 492.381 104.546ZM478.88 176.006C477.365 180.694 472.642 183.964 467.378 183.964C467.373 183.964 467.366 183.964 467.36 183.964L403.409 183.904C399.725 183.899 396.284 182.298 393.968 179.511C392.709 177.996 390.744 174.845 391.387 170.463L397.749 146.26C399.492 139.627 396.603 132.647 390.682 129.185C388.215 127.743 329.412 93.857 256.204 93.48C255.797 93.478 255.402 93.477 254.996 93.477C182.259 93.477 123.875 127.215 121.412 128.659C115.529 132.109 112.645 139.039 114.344 145.645L120.58 169.887C121.217 174.278 119.24 177.429 117.975 178.943C115.656 181.717 112.218 183.307 108.534 183.307C108.528 183.307 108.522 183.307 108.516 183.307L44.5638 183.247C39.3008 183.239 34.5758 179.953 33.0738 175.255C27.4818 157.774 31.2998 139.809 44.4218 121.861C79.2788 74.185 168.079 39.654 255.724 39.654C255.88 39.654 256.047 39.654 256.203 39.654C343.935 39.78 432.868 74.625 467.665 122.507C480.754 140.524 484.529 158.523 478.88 176.006Z" fill="white"/>
<path d="M400.595 279.807L352.904 229.732C350.019 226.704 346.022 224.991 341.841 224.991H311.021V204.168C311.021 195.73 304.181 188.89 295.743 188.89C287.306 188.89 280.465 195.73 280.465 204.168V224.991H231.543V204.168C231.543 195.73 224.703 188.89 216.265 188.89C207.827 188.89 200.987 195.73 200.987 204.168V224.991H170.168C165.987 224.991 161.988 226.705 159.105 229.732L111.415 279.807C74.0227 319.069 53.4297 370.551 53.4297 424.769V487.622C53.4297 496.06 60.2697 502.9 68.7077 502.9H443.3C451.738 502.9 458.578 496.06 458.578 487.622V424.769C458.58 370.55 437.987 319.069 400.595 279.807ZM83.9857 472.344V424.769C83.9857 378.432 101.585 334.435 133.543 300.879L176.717 255.545H335.293L378.467 300.879C410.423 334.433 428.022 378.432 428.022 424.769V472.344H83.9857Z" fill="white"/>
<path d="M256.005 287.135C211.915 287.135 176.046 323.005 176.046 367.094C176.046 411.184 211.916 447.054 256.005 447.054C300.094 447.054 335.964 411.184 335.964 367.094C335.964 323.004 300.095 287.135 256.005 287.135ZM256.005 416.497C228.763 416.497 206.602 394.335 206.602 367.093C206.602 339.852 228.764 317.69 256.005 317.69C283.246 317.69 305.408 339.852 305.408 367.093C305.408 394.335 283.246 416.497 256.005 416.497Z" fill="white"/>
</g>
<defs>
<clipPath id="clip0_3414_37">
<rect width="512" height="512" fill="white"/>
</clipPath>
</defs>
</svg>
