<svg width="50" height="50" viewBox="0 0 50 50" fill="none" xmlns="http://www.w3.org/2000/svg">
<path d="M35.9124 3.72931V46.2708C35.9124 47.99 34.5187 49.3836 32.7996 49.3836H11.0405C9.32139 49.3836 7.92773 47.99 7.92773 46.2708V3.72931C7.92773 2.01017 9.32139 0.616516 11.0405 0.616516H32.7996C34.5187 0.616516 35.9124 2.01007 35.9124 3.72931Z" fill="#474747"/>
<path opacity="0.12" d="M35.9124 3.72931V46.2708C35.9124 47.9881 34.5169 49.3836 32.7996 49.3836H11.0412C9.35508 49.3836 7.98027 48.0399 7.93359 46.3642C21.469 43.599 31.6531 31.6251 31.6531 17.2699C31.6531 11.1014 29.7699 5.36866 26.5481 0.616516H32.7997C34.5169 0.616516 35.9124 2.01202 35.9124 3.72931Z" fill="black"/>
<path d="M11.041 42.3798V5.28563C11.041 4.42606 11.7378 3.72919 12.5975 3.72919H31.2438C32.1034 3.72919 32.8003 4.42596 32.8003 5.28563V42.3798C32.8003 43.2393 32.1035 43.9362 31.2438 43.9362H12.5975C11.7379 43.9361 11.041 43.2393 11.041 42.3798Z" fill="#E8F1F8"/>
<path d="M23.7106 47.1786H20.1302C19.8435 47.1786 19.6113 46.9463 19.6113 46.6598C19.6113 46.3733 19.8434 46.1409 20.1302 46.1409H23.7106C23.9974 46.1409 24.2295 46.3733 24.2295 46.6598C24.2295 46.9463 23.9974 47.1786 23.7106 47.1786Z" fill="#E8F1F8"/>
<path d="M41.5533 18.4424C41.5533 24.0093 37.0437 28.5188 31.4798 28.5188C25.9158 28.5188 21.4033 24.0093 21.4033 18.4424C21.4033 12.8784 25.9157 8.36884 31.4798 8.36884C37.0438 8.36884 41.5533 12.8784 41.5533 18.4424Z" fill="#F78721"/>
<path d="M38.5235 18.4429C38.5235 22.3355 35.3702 25.4889 31.4796 25.4889C27.589 25.4889 24.4336 22.3355 24.4336 18.4429C24.4336 14.5522 27.589 11.3989 31.4796 11.3989C35.3702 11.3989 38.5235 14.5522 38.5235 18.4429Z" fill="#FDCF17"/>
<path opacity="0.1" d="M38.522 18.4412C38.522 22.3355 35.3696 25.4879 31.4799 25.4879C28.7653 25.4879 26.4057 23.9486 25.2305 21.6949C26.2029 22.2064 27.309 22.4922 28.4796 22.4922C32.3739 22.4922 35.5264 19.3352 35.5264 15.4454C35.5264 14.2748 35.2406 13.1687 34.7291 12.1962C36.9827 13.3622 38.522 15.7219 38.522 18.4412Z" fill="black"/>
<path d="M31.9178 21.4902H29.7113C29.4965 21.4902 29.3223 21.3159 29.3223 21.1012C29.3223 20.8864 29.4966 20.7121 29.7113 20.7121H31.9178C32.436 20.7121 32.8576 20.2906 32.8576 19.7726C32.8576 19.2545 32.4361 18.833 31.9178 18.833H31.0397C30.0929 18.833 29.3223 18.0624 29.3223 17.1152C29.3223 16.1681 30.0929 15.3975 31.0397 15.3975H33.2467C33.4615 15.3975 33.6357 15.5718 33.6357 15.7865C33.6357 16.0013 33.4614 16.1756 33.2467 16.1756H31.0397C30.522 16.1756 30.1004 16.5971 30.1004 17.1151C30.1004 17.6332 30.5219 18.0547 31.0397 18.0547H31.9178C32.8652 18.0547 33.6357 18.8253 33.6357 19.7725C33.6357 20.7196 32.8652 21.4902 31.9178 21.4902Z" fill="#F78721"/>
<path d="M31.4779 22.5947C31.2631 22.5947 31.0889 22.4204 31.0889 22.2057V21.1012C31.0889 20.8863 31.2632 20.7121 31.4779 20.7121C31.6927 20.7121 31.867 20.8864 31.867 21.1012V22.2057C31.867 22.4204 31.6928 22.5947 31.4779 22.5947Z" fill="#F78721"/>
<path d="M31.4779 16.1756C31.2631 16.1756 31.0889 16.0013 31.0889 15.7865V14.6823C31.0889 14.4675 31.2632 14.2933 31.4779 14.2933C31.6927 14.2933 31.867 14.4676 31.867 14.6823V15.7865C31.867 16.0014 31.6928 16.1756 31.4779 16.1756Z" fill="#F78721"/>
<path d="M46.5904 18.8329H43.7553C43.5404 18.8329 43.3662 18.6586 43.3662 18.4439C43.3662 18.2291 43.5405 18.0548 43.7553 18.0548H46.5904C46.8053 18.0548 46.9795 18.2291 46.9795 18.4439C46.9795 18.6586 46.8052 18.8329 46.5904 18.8329Z" fill="#474747"/>
<path d="M43.5573 15.6796C43.4054 15.5278 43.4054 15.2814 43.5573 15.1294L44.5771 14.109C44.7286 13.9572 44.9749 13.9568 45.1273 14.109C45.2793 14.2608 45.2793 14.5072 45.1273 14.6592L44.1075 15.6796C43.9555 15.8317 43.7094 15.8317 43.5573 15.6796Z" fill="#474747"/>
<path d="M44.5762 22.7786L43.5563 21.7582C43.4044 21.6062 43.4044 21.3598 43.5563 21.208C43.7089 21.0555 43.9551 21.0565 44.1065 21.208L45.1264 22.2284C45.2783 22.3804 45.2783 22.6268 45.1264 22.7786C44.975 22.93 44.7288 22.9312 44.5762 22.7786Z" fill="#474747"/>
<path d="M16.0994 35.0115C16.0994 38.6224 13.1682 41.5484 9.55732 41.5484C5.94648 41.5484 3.02051 38.6223 3.02051 35.0115C3.02051 31.4007 5.94658 28.4747 9.55732 28.4747C13.1682 28.4747 16.0994 31.4007 16.0994 35.0115Z" fill="#0E9C4A"/>
<path opacity="0.12" d="M16.0992 35.0129C16.0992 38.6238 13.168 41.5497 9.55713 41.5497C7.06689 41.5497 4.90352 40.1594 3.80371 38.1154C4.72715 38.6186 5.78555 38.8988 6.90615 38.8988C10.517 38.8988 13.4482 35.9727 13.4482 32.3618C13.4482 31.2412 13.1681 30.1829 12.67 29.2594C14.7141 30.3696 16.0992 32.5278 16.0992 35.0129Z" fill="black"/>
<path d="M6.84736 37.8869C6.69541 37.7349 6.69541 37.4885 6.84736 37.3367L11.7232 32.4623C11.8752 32.3103 12.1215 32.3103 12.2734 32.4623C12.4254 32.6142 12.4254 32.8607 12.2734 33.0125L7.39756 37.8869C7.24551 38.039 6.99932 38.0389 6.84736 37.8869Z" fill="#E8F1F8"/>
<path d="M7.70791 34.5909C6.9292 34.5909 6.2959 33.9573 6.2959 33.1784C6.2959 32.3951 6.9292 31.758 7.70791 31.758C8.49121 31.758 9.12852 32.3951 9.12852 33.1784C9.12852 33.9574 8.49121 34.5909 7.70791 34.5909ZM7.70791 32.5362C7.3583 32.5362 7.07412 32.8242 7.07412 33.1784C7.07412 33.5282 7.3583 33.8127 7.70791 33.8127C8.06201 33.8127 8.35029 33.5282 8.35029 33.1784C8.35039 32.8304 8.05596 32.5362 7.70791 32.5362Z" fill="#E8F1F8"/>
<path d="M11.4032 38.2652C10.6245 38.2652 9.99121 37.6316 9.99121 36.8529C9.99121 36.0696 10.6245 35.4323 11.4032 35.4323C12.1865 35.4323 12.8238 36.0696 12.8238 36.8529C12.8238 37.6316 12.1865 38.2652 11.4032 38.2652ZM11.4032 36.2105C11.0536 36.2105 10.7694 36.4988 10.7694 36.8529C10.7694 37.2025 11.0536 37.4869 11.4032 37.4869C11.7573 37.4869 12.0456 37.2025 12.0456 36.8529C12.0457 36.5045 11.7513 36.2105 11.4032 36.2105Z" fill="#E8F1F8"/>
</svg>
