<svg width="619" height="619" viewBox="0 0 619 619" fill="none" xmlns="http://www.w3.org/2000/svg">
<g clip-path="url(#clip0_3419_47)">
<path d="M512 0C535.562 0 554.666 19.1042 554.666 42.6667V117.333H469.333V42.6667C469.333 19.1042 488.437 0 512 0Z" fill="#4891D3"/>
<path d="M469.333 0H160C136.437 0 117.333 19.1042 117.333 42.6667V618.667H426.666C450.229 618.667 469.333 599.563 469.333 576V42.6667C469.333 19.1042 488.437 0 512 0H469.333Z" fill="#57B7EB"/>
<path d="M362.666 458.667C280.192 458.667 213.333 391.807 213.333 309.333V0H160C136.437 0 117.333 19.1042 117.333 42.6667V618.667H426.666C450.229 618.667 469.333 599.563 469.333 576V458.667H362.666Z" fill="#4891D3"/>
<path d="M234.667 85.3333H170.667C164.776 85.3333 160 90.1093 160 95.9999C160 101.891 164.776 106.667 170.667 106.667H192V160C192 165.891 196.776 170.667 202.667 170.667C208.557 170.667 213.333 165.891 213.333 160V106.667H234.667C240.557 106.667 245.333 101.891 245.333 95.9999C245.333 90.1093 240.557 85.3333 234.667 85.3333Z" fill="#FCBC04"/>
<path d="M399.041 128L423.573 103.573C427.755 99.3905 427.755 92.6093 423.573 88.427C419.39 84.2447 412.609 84.2447 408.427 88.427L384 112.958L359.573 88.427C355.39 84.2447 348.609 84.2447 344.427 88.427C340.244 92.6093 340.244 99.3905 344.427 103.573L368.958 128L344.427 152.427C342.406 154.427 341.271 157.156 341.271 160C341.271 162.844 342.406 165.573 344.427 167.573C346.427 169.594 349.156 170.729 352 170.729C354.843 170.729 357.573 169.594 359.573 167.573L384 143.042L408.427 167.573C410.427 169.594 413.156 170.729 416 170.729C418.843 170.729 421.573 169.594 423.573 167.573C425.593 165.573 426.729 162.844 426.729 160C426.729 157.156 425.593 154.427 423.573 152.427L399.041 128Z" fill="#FCBC04"/>
<path d="M329.494 155.198L297.494 91.1978C295.666 87.6353 292 85.3958 288 85.3958C284 85.3958 280.333 87.6353 278.505 91.1978L246.505 155.198C244.359 160.359 246.557 166.297 251.541 168.818C256.526 171.338 262.614 169.588 265.494 164.802L288 119.896L310.505 164.802C312.312 168.385 315.984 170.656 320 170.667C321.671 170.687 323.323 170.281 324.802 169.495C330.031 166.833 332.125 160.443 329.494 155.198Z" fill="#FCBC04"/>
<path d="M384 576V544H42.667V576C42.667 599.563 61.7712 618.667 85.3337 618.667H426.667C403.105 618.667 384 599.563 384 576Z" fill="#57B7EB"/>
<path d="M416 234.667H245.334C239.443 234.667 234.667 229.891 234.667 224C234.667 218.109 239.443 213.333 245.334 213.333H416C421.891 213.333 426.667 218.109 426.667 224C426.667 229.891 421.891 234.667 416 234.667Z" fill="#A1D51C"/>
<path d="M341.334 288H181.334C175.443 288 170.667 283.224 170.667 277.333C170.667 271.443 175.443 266.667 181.334 266.667H341.334C347.224 266.667 352 271.443 352 277.333C352 283.224 347.224 288 341.334 288Z" fill="#A1D51C"/>
<path d="M320.001 341.333H288.001C282.11 341.333 277.334 336.557 277.334 330.667C277.334 324.776 282.11 320 288.001 320H320.001C325.891 320 330.667 324.776 330.667 330.667C330.667 336.557 325.891 341.333 320.001 341.333Z" fill="#A1D51C"/>
<path d="M309.334 394.667H181.334C175.443 394.667 170.667 389.891 170.667 384C170.667 378.109 175.443 373.333 181.334 373.333H309.334C315.224 373.333 320 378.109 320 384C320 389.891 315.224 394.667 309.334 394.667Z" fill="#A1D51C"/>
<path d="M309.334 448H213.334C207.443 448 202.667 443.224 202.667 437.333C202.667 431.443 207.443 426.667 213.334 426.667H309.334C315.224 426.667 320 431.443 320 437.333C320 443.224 315.224 448 309.334 448Z" fill="#A1D51C"/>
<path d="M352 501.333H181.334C175.443 501.333 170.667 496.557 170.667 490.667C170.667 484.776 175.443 480 181.334 480H352C357.891 480 362.667 484.776 362.667 490.667C362.667 496.557 357.891 501.333 352 501.333Z" fill="#7AB92D"/>
<path d="M245.334 341.333H181.334C175.443 341.333 170.667 336.557 170.667 330.667C170.667 324.776 175.443 320 181.334 320H245.334C251.224 320 256 324.776 256 330.667C256 336.557 251.224 341.333 245.334 341.333Z" fill="#A1D51C"/>
<path d="M576 394.667C576 453.578 528.245 501.333 469.334 501.333C410.422 501.333 362.667 453.578 362.667 394.667C362.667 335.755 410.422 288 469.334 288C528.245 288 576 335.755 576 394.667Z" fill="#F9E109"/>
<path d="M554.667 394.667C554.667 441.797 516.464 480 469.333 480C422.203 480 384 441.797 384 394.667C384 347.536 422.203 309.333 469.333 309.333C516.464 309.333 554.667 347.536 554.667 394.667Z" fill="#FCBC04"/>
<path d="M469.333 309.333C441.411 309.38 415.276 323.083 399.359 346.026C413.589 335.984 430.589 330.62 448 330.667C495.13 330.667 533.333 368.87 533.333 416C533.38 433.411 528.016 450.411 517.974 464.641C548.5 443.333 561.693 404.693 550.563 369.161C539.438 333.635 506.563 309.422 469.333 309.333Z" fill="#E59730"/>
<path d="M469.334 384C460.495 384 453.334 376.838 453.334 368C453.334 359.161 460.495 352 469.334 352C478.172 352 485.334 359.161 485.334 368C485.334 373.891 490.11 378.667 496 378.667C501.891 378.667 506.667 373.891 506.667 368C506.599 351.547 495.771 337.073 480 332.375V320C480 314.109 475.224 309.333 469.334 309.333C463.443 309.333 458.667 314.109 458.667 320V332.375C440.844 337.578 429.584 355.12 432.266 373.495C434.953 391.865 450.766 405.448 469.334 405.333C478.172 405.333 485.334 412.495 485.334 421.333C485.334 430.172 478.172 437.333 469.334 437.333C460.495 437.333 453.334 430.172 453.334 421.333C453.334 415.443 448.558 410.667 442.667 410.667C436.776 410.667 432 415.443 432 421.333C432.068 437.786 442.896 452.26 458.667 456.958V469.333C458.667 475.224 463.443 480 469.334 480C475.224 480 480 475.224 480 469.333V456.958C497.823 451.755 509.084 434.213 506.401 415.838C503.714 397.469 487.901 383.885 469.334 384Z" fill="#F9E109"/>
<path d="M160 95.9999C160 101.891 164.776 106.667 170.667 106.667H192V160C192 165.891 196.776 170.667 202.667 170.667C208.557 170.667 213.333 165.891 213.333 160V85.3333H170.667C164.776 85.3333 160 90.1093 160 95.9999Z" fill="#E59730"/>
<path d="M170.667 277.333C170.667 283.224 175.443 288 181.334 288H213.334V266.667H181.334C175.443 266.667 170.667 271.443 170.667 277.333Z" fill="#7AB92D"/>
<path d="M170.667 384C170.667 389.891 175.443 394.667 181.334 394.667H240.214C235.532 387.917 231.427 380.776 227.948 373.333H181.334C175.443 373.333 170.667 378.109 170.667 384Z" fill="#7AB92D"/>
<path d="M202.667 437.333C202.667 443.224 207.443 448 213.334 448H307.412C294.157 442.693 281.724 435.505 270.506 426.667H213.334C207.443 426.667 202.667 431.443 202.667 437.333Z" fill="#7AB92D"/>
<path d="M170.667 330.667C170.667 336.557 175.443 341.333 181.334 341.333H216.854C215.365 334.302 214.37 327.172 213.865 320H181.334C175.443 320 170.667 324.776 170.667 330.667Z" fill="#7AB92D"/>
</g>
<defs>
<clipPath id="clip0_3419_47">
<rect width="618.667" height="618.667" fill="white"/>
</clipPath>
</defs>
</svg>
