<svg width="30" height="30" viewBox="0 0 30 30" fill="none" xmlns="http://www.w3.org/2000/svg">
<g clip-path="url(#clip0_3249_955)">
<path fill-rule="evenodd" clip-rule="evenodd" d="M24.9484 5.00986C22.3172 2.37555 18.8178 0.924152 15.0899 0.922607C7.40803 0.922607 1.15612 7.17434 1.15303 14.8582C1.152 17.3146 1.79367 19.7123 3.01333 21.8258L1.03613 29.0476L8.42427 27.1096C10.46 28.22 12.7519 28.8052 15.0842 28.8059H15.09C22.771 28.8059 29.0236 22.5537 29.0266 14.8694C29.0281 11.1454 27.5798 7.64401 24.9484 5.00986ZM15.0899 26.4523H15.0851C13.0066 26.4514 10.9681 25.8928 9.18936 24.8376L8.76656 24.5865L4.38233 25.7366L5.55254 21.4621L5.27703 21.0238C4.11745 19.1795 3.50514 17.0478 3.50617 14.8591C3.50857 8.47245 8.7051 3.27643 15.0945 3.27643C18.1885 3.27746 21.097 4.48389 23.284 6.67344C25.4709 8.86298 26.6746 11.7733 26.6736 14.8685C26.6708 21.2557 21.4747 26.4523 15.0899 26.4523ZM21.4438 17.7767C21.0956 17.6023 19.3835 16.7601 19.0642 16.6437C18.7452 16.5275 18.5128 16.4696 18.2809 16.8181C18.0486 17.1666 17.3814 17.9511 17.1781 18.1833C16.9749 18.4158 16.772 18.4449 16.4237 18.2705C16.0754 18.0963 14.9534 17.7284 13.6232 16.5421C12.5881 15.6187 11.8893 14.4784 11.686 14.1299C11.4831 13.7811 11.6843 13.6108 11.8388 13.4192C12.2158 12.9511 12.5932 12.4603 12.7093 12.2281C12.8255 11.9956 12.7673 11.7922 12.6801 11.618C12.5932 11.4437 11.8968 9.72969 11.6067 9.03223C11.3238 8.35349 11.037 8.44515 10.8231 8.43451C10.6202 8.42438 10.3879 8.42232 10.1556 8.42232C9.92356 8.42232 9.54625 8.50935 9.22696 8.85817C8.90784 9.20681 8.00833 10.0492 8.00833 11.7632C8.00833 13.4772 9.25614 15.1331 9.4302 15.3655C9.60427 15.5979 11.8858 19.1153 15.379 20.6235C16.2098 20.9826 16.8583 21.1967 17.3642 21.3572C18.1985 21.6222 18.9574 21.5848 19.5575 21.4952C20.2267 21.3951 21.6176 20.6527 21.9081 19.8393C22.1982 19.0258 22.1982 18.3287 22.111 18.1833C22.0241 18.0381 21.7919 17.9511 21.4438 17.7767Z" fill="white"/>
</g>
<defs>
<clipPath id="clip0_3249_955">
<rect width="30" height="30" fill="white" transform="translate(0 -0.000244141)"/>
</clipPath>
</defs>
</svg>
